<svg xmlns="http://www.w3.org/2000/svg" viewBox="0 0 80 63" width="80" height="63">
	<defs>
		<clipPath clipPathUnits="userSpaceOnUse" id="cp1">
			<path d="M-1814 -1194L670 -1194L670 4182L-1814 4182Z" />
		</clipPath>
	</defs>
	<style>
		tspan { white-space:pre }
		.shp0 { fill: #f44336 } 
		.shp1 { fill: #e57373 } 
		.shp2 { fill: #b71c1c } 
		.shp3 { fill: #e0e0e0 } 
		.shp4 { fill: #bdbdbd } 
		.shp5 { fill: #ffffff } 
		.shp6 { fill: #00bcd4 } 
		.shp7 { fill: #0097a7 } 
		.shp8 { fill: #00838f } 
		.shp9 { fill: #fafafa } 
		.shp10 { fill: #00e5ff } 
		.shp11 { fill: #fff9c4 } 
		.shp12 { fill: #fff59d } 
		.shp13 { fill: #fffacb } 
	</style>
	<g id="Page 4" clip-path="url(#cp1)">
		<path id="Path 7407" class="shp0" d="M11.75 57.1L2.98 38.29L9.54 27.36L36.39 31.18L64.41 27.36L74.9 39.47L70.97 58.15L38.94 59.89L11.75 57.1Z" />
		<path id="Path 7408" class="shp1" d="M38.17 40.97L9.54 27.36L2.98 38.29L19.88 40.1L38.17 40.97ZM38.17 40.97L62.7 28.89L79.29 38.29L62.7 39.9L38.17 40.97Z" />
		<path id="Path 7409" class="shp2" d="M3.75 38.06L17.92 39.71L38.17 40.97L64.23 39.71L76.76 38.19L72.58 57.93L38.29 59.07L9.44 58.18L3.75 38.06Z" />
		<path id="Path 7410" class="shp3" d="M39.77 55.53C23.5 54.98 7.37 53.79 7.37 53.79L7.37 60.4L74.9 53.79L39.77 55.53Z" />
		<path id="Path 7411" class="shp4" d="M7.36 60.4C27.37 62.94 58.3 62.94 74.9 61.67C74.87 58.38 74.9 53.79 74.9 53.79L7.36 60.4Z" />
		<path id="Path 7412" class="shp5" d="M7.36 53.79L0.44 38.29L9.54 26.09C9.54 26.09 37.08 31.18 36.39 31.18C35.7 31.18 9.54 30.16 9.54 30.16L5.6 38.29L11.74 54.1L7.36 53.79ZM74.9 53.79L79.28 38.29L65.59 24.57L36.39 31.18L62.7 28.89L72.61 39.18L69.97 54.37L74.9 53.79ZM15.08 39.47L19.88 54.61L26.88 54.98L19.88 40.1L23.57 35.24L33.93 31.17L19.88 33.97L15.08 39.47ZM38.44 31.18L56.6 32.45L68.15 39.47L65.59 54.78L56.6 55.38L60.16 40.1L51.17 34.99L38.44 31.18Z" />
		<path id="Path 7413" class="shp6" d="M33.84 19.99L38.92 19.99L42.25 24.57L40.27 31.18L32.21 31.18L29.46 24.57L33.84 19.99Z" />
		<path id="Path 7414" class="shp7" d="M42.25 24.57L40.27 31.18L32.21 31.18L42.25 24.57Z" />
		<path id="Path 7415" class="shp5" d="M34.6 22.09L37.77 22.09L39.85 24.95L38.61 29.08L33.58 29.08L31.86 24.95L34.6 22.09Z" />
		<path id="Path 7416" class="shp8" d="M10.79 55.11L13.19 55.11L14.76 57.26L13.82 60.37L10.02 60.37L8.73 57.26L10.79 55.11ZM29.16 55.9L31.56 55.9L33.13 58.06L32.19 61.17L28.39 61.17L27.45 58.13L29.16 55.9ZM50.53 56.54L52.92 56.54L54.49 58.69L53.56 61.81L49.76 61.81L48.82 58.72L50.53 56.54ZM69.53 55.53L72.37 55.53L73.94 57.68L73.01 60.79L69.21 60.79L68.16 57.43L69.53 55.53Z" />
		<path id="Path 7417" class="shp4" d="M39.85 24.95L38.61 29.08L33.58 29.08L39.85 24.95Z" />
		<path id="Path 7418" class="shp9" d="M33.84 19.99L34.76 11.22L28.45 12.36L26.86 5.83L34.61 6.82L34.15 0.2L40 0.28L38.44 7.14L45.4 6.21L45.4 12.56L38.44 11.1L38.92 19.99L33.84 19.99Z" />
		<path id="Path 7419" class="shp4" d="M45.4 6.21L45.4 12.56L38.44 11.1L45.4 6.21ZM34.76 11.22L28.45 12.36L26.86 5.83L34.76 11.22Z" />
		<path id="Path 7420" class="shp6" d="M14.12 57.74C14.12 58.96 13.13 59.95 11.91 59.95C10.68 59.95 9.69 58.96 9.69 57.74C9.69 56.52 10.68 55.53 11.91 55.53C13.13 55.53 14.12 56.52 14.12 57.74ZM31.29 9.12C31.29 9.77 30.77 10.29 30.12 10.29C29.47 10.29 28.95 9.77 28.95 9.12C28.95 8.47 29.47 7.95 30.12 7.95C30.77 7.95 31.29 8.47 31.29 9.12ZM32.47 58.75C32.47 59.97 31.48 60.97 30.26 60.97C29.03 60.97 28.04 59.97 28.04 58.75C28.04 57.53 29.03 56.54 30.26 56.54C31.48 56.54 32.47 57.53 32.47 58.75ZM53.86 59.13C53.86 60.35 52.86 61.35 51.64 61.35C50.42 61.35 49.43 60.35 49.43 59.13C49.43 57.91 50.42 56.92 51.64 56.92C52.86 56.92 53.86 57.91 53.86 59.13ZM73.22 58.12C73.22 59.34 72.22 60.33 71 60.33C69.78 60.33 68.79 59.34 68.79 58.12C68.79 56.9 69.78 55.91 71 55.91C72.22 55.91 73.22 56.9 73.22 58.12Z" />
		<path id="Path 7421" class="shp10" d="M72.74 58.12C72.74 58.88 72.12 59.5 71.36 59.5C70.59 59.5 69.97 58.88 69.97 58.12C69.97 57.36 70.59 56.74 71.36 56.74C72.12 56.74 72.74 57.36 72.74 58.12ZM53.3 59.07C53.3 59.83 52.68 60.45 51.91 60.45C51.15 60.45 50.53 59.83 50.53 59.07C50.53 58.3 51.15 57.69 51.91 57.69C52.68 57.69 53.3 58.3 53.3 59.07ZM31.5 58.54C31.5 59.3 30.88 59.92 30.11 59.92C29.35 59.92 28.73 59.3 28.73 58.54C28.73 57.78 29.35 57.16 30.11 57.16C30.88 57.16 31.5 57.78 31.5 58.54ZM12.78 57.69C12.78 58.45 12.16 59.07 11.39 59.07C10.63 59.07 10.01 58.45 10.01 57.69C10.01 56.92 10.63 56.3 11.39 56.3C12.16 56.3 12.78 56.92 12.78 57.69Z" />
		<path id="Path 7422" class="shp6" d="M38.05 2.59C38.05 3.24 37.53 3.76 36.88 3.76C36.23 3.76 35.71 3.24 35.71 2.59C35.71 1.94 36.23 1.42 36.88 1.42C37.53 1.42 38.05 1.94 38.05 2.59ZM44.26 9.29C44.26 9.94 43.73 10.46 43.09 10.46C42.44 10.46 41.92 9.94 41.92 9.29C41.92 8.64 42.44 8.12 43.09 8.12C43.73 8.12 44.26 8.64 44.26 9.29ZM37.5 9.01C37.5 9.66 36.97 10.18 36.33 10.18C35.68 10.18 35.15 9.66 35.15 9.01C35.15 8.36 35.68 7.84 36.33 7.84C36.97 7.84 37.5 8.36 37.5 9.01ZM37.03 25.58C37.03 26.23 36.5 26.76 35.86 26.76C35.21 26.76 34.68 26.23 34.68 25.58C34.68 24.94 35.21 24.41 35.86 24.41C36.5 24.41 37.03 24.94 37.03 25.58Z" />
		<path id="Path 7423" class="shp11" d="M9.54 26.09L9.54 30.16L0.44 38.29L9.54 26.09ZM65.59 24.57L62.7 28.89L79.29 38.29L65.59 24.57Z" />
		<path id="Path 7424" class="shp12" d="M0.44 38.29L11.75 54.1L7.36 53.79L0.44 38.29ZM74.9 53.79L79.28 38.29L69.97 54.37L74.9 53.79Z" />
		<path id="Path 7425" class="shp13" d="M19.88 33.97L23.57 35.24L15.08 39.47L19.88 33.97ZM56.6 32.45L51.17 34.99L68.15 39.47L56.6 32.45Z" />
		<path id="Path 7426" class="shp12" d="M65.59 54.78L68.15 39.47L56.6 55.38L65.59 54.78ZM19.88 54.61L26.88 54.98L15.08 39.47L19.88 54.61Z" />
	</g>
</svg>