<?xml version="1.0" encoding="utf-8"?>
<!-- Generator: Adobe Illustrator 23.0.1, SVG Export Plug-In . SVG Version: 6.00 Build 0)  -->
<svg version="1.1" id="Layer_1" xmlns="http://www.w3.org/2000/svg" xmlns:xlink="http://www.w3.org/1999/xlink" x="0px" y="0px"
	 viewBox="0 0 128 128" style="enable-background:new 0 0 128 128;" xml:space="preserve">
<style type="text/css">
	.st0{fill:#FEEA3A;}
	.st1{fill:#EF6C00;}
	.st2{fill:#FFEE58;}
	.st3{fill:#FF8F00;}
	.st4{fill:#FFFFFF;}
	.st5{fill:#F8981D;}
	.st6{fill:#F57C00;}
	.st7{fill:#FDD835;}
	.st8{fill:#FFB300;}
</style>
<g>
	<path class="st0" d="M39,101.4c-1.6-13.5,3-29,14.8-32.1c10-2.6,25.2,4.5,24.8,25.7L39,101.4z"/>
	<path class="st1" d="M72.5,119.8c0,2.2-2,6.2-3.4,6.2s-3.4-4-3.4-6.2s0.9-3.6,3.4-3.6S72.5,117.6,72.5,119.8z"/>
	<path class="st1" d="M63.8,119.8c0,2.2-2,6.2-3.4,6.2s-3.4-4-3.4-6.2s0.9-3.6,3.4-3.6C62.9,116.2,63.8,117.6,63.8,119.8z"/>
	<path class="st2" d="M84.2,110.3L78.6,95c3.1-0.2,7-0.3,9.4-0.3L84.2,110.3z"/>
	<path class="st3" d="M73.7,119c-13.6,3.4-32.3,1.9-34.7-17.6L73.7,119z"/>
	<circle class="st4" cx="55.8" cy="84.7" r="10.4"/>
	<circle cx="55.8" cy="84.7" r="6.3"/>
	<path class="st5" d="M32.3,87.4c-2,3.2,5.3,7.2,6.3,7.1c-2.7,0.7-5.3,2.1-5,4.3c0.5,2.8,12.3,0.1,11.9-4.8S34.4,84.2,32.3,87.4z"/>
	<path class="st6" d="M38.6,94.5c-2.7,0.7-5.3,2.1-5,4.3c0.5,2.8,12.3,0.1,11.9-4.8L38.6,94.5z"/>
	<polygon class="st7" points="78.6,95 39,101.4 84.2,110.3 	"/>
	<polygon class="st8" points="73.7,119 39,101.4 84.2,110.3 	"/>
</g>
</svg>
