<svg id="acc" xmlns="http://www.w3.org/2000/svg" viewBox="0 0 512 512"><defs><style>.cls-1{fill:none;stroke:#424242;stroke-miterlimit:10;stroke-width:11.3px;}.cls-2{fill:#424242;}.cls-3,.cls-4{fill:#fff;}.cls-3{opacity:0.25;}.cls-4{opacity:0.5;}.cls-5{fill:#212121;}</style></defs><title>cat-acc</title><line class="cls-1" x1="281.6" y1="152.97" x2="309.17" y2="152.97"/><polygon class="cls-2" points="203.41 145.9 127.44 144.44 127.44 131.32 203.41 131.77 203.41 145.9"/><polygon class="cls-3" points="203.41 128.78 281.6 128.78 281.6 177.15 203.41 128.78"/><polygon class="cls-4" points="281.6 177.15 203.41 177.15 203.41 128.78 281.6 177.15"/><polygon class="cls-3" points="303.37 128.68 376.74 128.68 376.74 177.04 303.37 128.68"/><rect class="cls-1" x="203.41" y="128.79" width="78.18" height="48.36"/><polygon class="cls-4" points="376.74 177.04 303.37 176.95 303.37 128.59 376.74 177.04"/><polygon class="cls-2" points="408.77 144.89 379.64 147.26 379.64 133.13 408.31 131.49 408.77 144.89"/><rect class="cls-1" x="309.17" y="128.68" width="70.48" height="48.36"/><polygon points="307.58 256.25 301.78 281.2 271.25 281.2 307.58 256.25"/><polygon class="cls-5" points="271.25 281.2 257.07 257.39 307.58 256.25 271.25 281.2"/><polygon points="271.25 281.2 287.03 366.78 307.58 343.79 271.25 281.2"/><polygon class="cls-5" points="307.58 343.79 301.78 281.2 271.25 281.2 307.58 343.79"/><polyline class="cls-5" points="271.25 281.2 264.25 343.51 287.03 366.78"/></svg>